<svg width="51" height="22" viewBox="0 0 51 22" fill="none" xmlns="http://www.w3.org/2000/svg">
<path d="M14.998 21H1.35352V18.293L7.79297 11.4297C8.67708 10.4635 9.32878 9.62044 9.74805 8.90039C10.1764 8.18034 10.3906 7.49674 10.3906 6.84961C10.3906 5.96549 10.1673 5.27279 9.7207 4.77148C9.27409 4.26107 8.63607 4.00586 7.80664 4.00586C6.91341 4.00586 6.20703 4.31576 5.6875 4.93555C5.17708 5.54622 4.92188 6.35286 4.92188 7.35547H0.957031C0.957031 6.14323 1.24414 5.03581 1.81836 4.0332C2.40169 3.0306 3.22201 2.24674 4.2793 1.68164C5.33659 1.10742 6.53516 0.820312 7.875 0.820312C9.92578 0.820312 11.5163 1.3125 12.6465 2.29688C13.7858 3.28125 14.3555 4.67122 14.3555 6.4668C14.3555 7.45117 14.1003 8.45378 13.5898 9.47461C13.0794 10.4954 12.2044 11.6849 10.9648 13.043L6.43945 17.8145H14.998V21ZM32.7262 21H19.0816V18.293L25.5211 11.4297C26.4052 10.4635 27.0569 9.62044 27.4762 8.90039C27.9046 8.18034 28.1187 7.49674 28.1187 6.84961C28.1187 5.96549 27.8954 5.27279 27.4488 4.77148C27.0022 4.26107 26.3642 4.00586 25.5348 4.00586C24.6415 4.00586 23.9352 4.31576 23.4156 4.93555C22.9052 5.54622 22.65 6.35286 22.65 7.35547H18.6852C18.6852 6.14323 18.9723 5.03581 19.5465 4.0332C20.1298 3.0306 20.9501 2.24674 22.0074 1.68164C23.0647 1.10742 24.2633 0.820312 25.6031 0.820312C27.6539 0.820312 29.2444 1.3125 30.3746 2.29688C31.5139 3.28125 32.0836 4.67122 32.0836 6.4668C32.0836 7.45117 31.8284 8.45378 31.318 9.47461C30.8076 10.4954 29.9326 11.6849 28.693 13.043L24.1676 17.8145H32.7262V21ZM50.2082 12.7695C50.2082 15.5221 49.6385 17.6276 48.4992 19.0859C47.3599 20.5443 45.6919 21.2734 43.4953 21.2734C41.326 21.2734 39.6672 20.5579 38.5187 19.127C37.3703 17.696 36.7824 15.6452 36.7551 12.9746V9.31055C36.7551 6.5306 37.3293 4.42057 38.4777 2.98047C39.6353 1.54036 41.2987 0.820312 43.468 0.820312C45.6372 0.820312 47.2961 1.53581 48.4445 2.9668C49.593 4.38867 50.1809 6.4349 50.2082 9.10547V12.7695ZM46.257 8.75C46.257 7.10026 46.0292 5.90169 45.5734 5.1543C45.1268 4.39779 44.425 4.01953 43.468 4.01953C42.5383 4.01953 41.8501 4.37956 41.4035 5.09961C40.966 5.81055 40.7336 6.92708 40.7062 8.44922V13.2891C40.7062 14.9115 40.925 16.1191 41.3625 16.9121C41.8091 17.696 42.5201 18.0879 43.4953 18.0879C44.4615 18.0879 45.1587 17.7096 45.5871 16.9531C46.0155 16.1966 46.2388 15.0391 46.257 13.4805V8.75Z" fill="white"/>
</svg>
