<svg width="8" height="16" viewBox="0 0 8 16" fill="none" xmlns="http://www.w3.org/2000/svg">
<path d="M1.68995 15.0801C1.30935 15.0796 0.940649 14.9476 0.646249 14.7064C0.351849 14.4652 0.14985 14.1297 0.0745501 13.7566C-0.000849884 13.3835 0.0551497 12.9959 0.23295 12.6594C0.41065 12.3229 0.699349 12.0581 1.04995 11.9101C1.86555 11.5635 2.56055 10.9838 3.04805 10.2438C3.53545 9.5037 3.79355 8.6362 3.78995 7.7501C3.79345 7.149 3.67435 6.5535 3.43995 6.0001C3.20305 5.4627 2.86335 4.9769 2.43995 4.5701C2.03115 4.1489 1.54575 3.8095 1.00995 3.5701C0.65635 3.3727 0.38825 3.0515 0.25735 2.66825C0.12635 2.28504 0.141849 1.86693 0.300849 1.49445C0.459749 1.12197 0.750849 0.821459 1.11805 0.650799C1.48535 0.480129 1.90275 0.451378 2.28995 0.570078C3.46245 1.07189 4.49495 1.8522 5.29765 2.84332C6.10045 3.8344 6.64925 5.0064 6.89655 6.2577C7.14385 7.5089 7.08215 8.8016 6.71675 10.0235C6.35145 11.2455 5.69345 12.3599 4.79995 13.2701C4.09415 13.9834 3.25485 14.5508 2.32995 14.9401C2.12815 15.0293 1.91055 15.0769 1.68995 15.0801Z" fill="#B3B3B3"/>
</svg>
